<svg xmlns="http://www.w3.org/2000/svg" width="425" height="245" viewBox="0 0 425 245" version="1.1"><path d="M 150.300 113.802 C 134.532 119.432, 126.147 132.218, 125.243 152.012 C 124.673 164.496, 126.388 172.685, 131.287 180.863 C 137.822 191.771, 147.044 197.284, 159.690 197.840 C 169.942 198.291, 176.142 196.388, 182.421 190.861 L 187 186.830 187 191.915 L 187 197 200 197 L 213 197 213 155 L 213 113 200 113 L 187 113 187 118.104 L 187 123.207 183.301 119.959 C 174.959 112.635, 160.910 110.014, 150.300 113.802 M 272.222 113.411 C 267.683 114.891, 261.635 118.936, 258.772 122.406 C 257.092 124.442, 257.044 124.341, 257.022 118.750 L 257 113 244 113 L 231 113 231 175 L 231 237 244 237 L 257 237 257 211.896 L 257 186.793 260.685 190.028 C 267.037 195.606, 273.454 197.979, 282.212 197.990 C 303.080 198.017, 317.506 183.224, 319.552 159.702 C 321.821 133.606, 306.646 113.283, 284.185 112.339 C 279.456 112.140, 274.855 112.552, 272.222 113.411 M 375.500 112.871 C 370.844 114.104, 365.812 116.928, 362.250 120.308 L 359 123.392 359 118.167 L 359 112.942 345.750 113.221 L 332.500 113.500 332.500 175 L 332.500 236.500 345.750 236.779 L 359 237.058 359 212.128 L 359 187.198 362.185 190.173 C 368.658 196.220, 372.470 197.500, 384 197.500 C 393.554 197.500, 394.976 197.249, 399.784 194.716 C 413.482 187.499, 421 173.305, 421 154.661 C 421 137.046, 412.675 121.902, 399.429 115.421 C 393.708 112.622, 381.397 111.310, 375.500 112.871 M 161.223 137.119 C 149.308 143.017, 148.025 164.185, 159.105 172.075 C 162.408 174.427, 170.060 175.704, 174.369 174.622 C 181.192 172.910, 186.972 164.113, 186.934 155.500 C 186.893 146.077, 183.554 140.120, 176.500 136.881 C 171.221 134.456, 166.451 134.531, 161.223 137.119 M 266.907 137.325 C 253.999 144.134, 254.101 166.830, 267.069 173.536 C 270.664 175.395, 279.279 175.427, 282.800 173.595 C 291.778 168.923, 295.737 155.556, 291.119 145.500 C 288.934 140.742, 286.704 138.610, 281.746 136.538 C 276.580 134.380, 272.033 134.621, 266.907 137.325 M 369.500 136.417 C 365.773 138.081, 361.469 142.596, 360.064 146.315 C 358.250 151.115, 358.766 160.885, 361.086 165.677 C 363.977 171.650, 368.061 174.304, 375.146 174.817 C 386.645 175.649, 394 167.977, 394 155.152 C 394 147.937, 392.402 143.580, 388.373 139.814 C 383.219 134.995, 375.713 133.644, 369.500 136.417" stroke="none" fill="#000000" fill-rule="evenodd"/><path d="M 61 33 L 61 62 32.500 62 L 4 62 4 76 L 4 90 32.485 90 L 60.970 90 61.235 119.250 L 61.500 148.500 76.500 148.500 L 91.500 148.500 91.765 119.250 L 92.030 90 120.515 90 L 149 90 149 76 L 149 62 120.500 62 L 92 62 92 33 L 92 4 76.500 4 L 61 4 61 33" stroke="none" fill="#fc04fc" fill-rule="evenodd"/></svg>